<?xml version="1.0" encoding="UTF-8"?>
<!DOCTYPE svg PUBLIC "-//W3C//DTD SVG 1.1//EN" "http://www.w3.org/Graphics/SVG/1.1/DTD/svg11.dtd">
<svg xmlns="http://www.w3.org/2000/svg" version="1.1" width="270px" height="297px" style="shape-rendering:geometricPrecision; text-rendering:geometricPrecision; image-rendering:optimizeQuality; fill-rule:evenodd; clip-rule:evenodd" xmlns:xlink="http://www.w3.org/1999/xlink">
<g><path style="opacity:1" fill="#cbe8fd" d="M 160.5,6.5 C 162.019,7.40982 163.685,8.24316 165.5,9C 184.512,10.0098 202.845,13.6765 220.5,20C 223.833,20.3333 227.167,20.6667 230.5,21C 231.833,21.6667 232.833,22.6667 233.5,24C 239.182,24.5053 244.515,26.1719 249.5,29C 250.895,31.7848 252.228,34.6181 253.5,37.5C 254.298,41.4816 254.965,45.4816 255.5,49.5C 255.392,50.4419 255.059,51.2753 254.5,52C 256.856,56.1074 257.523,60.4407 256.5,65C 257.306,70.2344 258.639,75.0677 260.5,79.5C 263.391,110.06 261.225,140.393 254,170.5C 251.247,177.334 249.08,184.334 247.5,191.5C 243.966,198.898 240.133,206.231 236,213.5C 234.693,214.772 233.193,215.772 231.5,216.5C 225.141,226.435 217.641,235.435 209,243.5C 208.667,244.833 208.333,246.167 208,247.5C 202.195,254.001 195.361,258.834 187.5,262C 184.131,264.684 180.464,266.851 176.5,268.5C 175.614,269.325 175.281,270.325 175.5,271.5C 172.309,272.092 169.309,273.259 166.5,275C 163.525,278.129 160.191,280.629 156.5,282.5C 153.133,282.457 149.799,282.79 146.5,283.5C 142.553,285.651 138.386,287.317 134,288.5C 125.173,285 116.34,281.5 107.5,278C 100.203,274.006 92.8693,270.006 85.5,266C 84.6634,264.989 84.33,263.822 84.5,262.5C 80.4892,262.178 77.4892,260.178 75.5,256.5C 70.3678,253.203 65.3678,249.703 60.5,246C 59.8765,242.383 57.8765,240.05 54.5,239C 49.1956,232.753 43.5289,226.92 37.5,221.5C 30.6304,209.094 24.2971,196.428 18.5,183.5C 7.63623,145.854 4.46957,107.52 9,68.5C 10.4274,54.5984 12.9274,40.9317 16.5,27.5C 22.3698,25.3901 28.0365,23.0567 33.5,20.5C 66.7545,10.6061 100.754,5.27276 135.5,4.5C 143.954,4.35523 152.288,5.0219 160.5,6.5 Z"/></g>
<g><path style="opacity:0.018" fill="#f6fdfe" d="M 254.5,28.5 C 224.467,16.1045 193.134,8.77114 160.5,6.5C 152.288,5.0219 143.954,4.35523 135.5,4.5C 100.754,5.27276 66.7545,10.6061 33.5,20.5C 107.394,-3.80916 180.727,-1.80916 253.5,26.5C 254.298,26.9569 254.631,27.6236 254.5,28.5 Z"/></g>
<g><path style="opacity:1" fill="#236598" d="M 134.5,20.5 C 155.357,21.2746 176.024,23.6079 196.5,27.5C 203.492,30.6092 210.825,33.4426 218.5,36C 225.135,37.4281 231.801,38.9281 238.5,40.5C 239.768,48.4752 240.934,56.4752 242,64.5C 242.383,65.056 242.883,65.3893 243.5,65.5C 249.844,105.722 246.344,145.055 233,183.5C 213.689,228.311 180.856,258.311 134.5,273.5C 134.5,258.833 134.5,244.167 134.5,229.5C 135.922,229.25 136.922,228.417 137.5,227C 136.346,215.243 136.179,203.409 137,191.5C 138.299,191.966 139.799,191.966 141.5,191.5C 141.5,190.5 141.5,189.5 141.5,188.5C 147.862,188.645 154.195,188.811 160.5,189C 160.833,188.667 161.167,188.333 161.5,188C 157.919,187.325 157.919,186.159 161.5,184.5C 163.05,185.732 164.717,186.232 166.5,186C 165.643,185.311 164.977,184.478 164.5,183.5C 165.826,182.358 166.826,181.024 167.5,179.5C 174.139,174.861 179.806,169.194 184.5,162.5C 195.338,147.278 198.672,130.612 194.5,112.5C 187.21,85.2136 169.543,69.547 141.5,65.5C 139.393,64.5318 137.059,64.1984 134.5,64.5C 134.5,49.8333 134.5,35.1667 134.5,20.5 Z"/></g>
<g><path style="opacity:1" fill="#55acee" d="M 134.5,20.5 C 134.5,35.1667 134.5,49.8333 134.5,64.5C 133.833,64.5 133.5,64.8333 133.5,65.5C 132.505,78.3226 132.171,91.3226 132.5,104.5C 128.818,104.335 125.152,104.501 121.5,105C 119.111,105.739 117.111,106.905 115.5,108.5C 81.9161,122.318 68.0828,147.318 74,183.5C 76.6066,192.713 80.7733,201.047 86.5,208.5C 87.3733,210.886 88.8733,212.886 91,214.5C 91.3599,216.608 92.0266,218.608 93,220.5C 94.0985,217.956 95.2652,217.956 96.5,220.5C 95.5,221.167 94.5,221.833 93.5,222.5C 95.4886,223.615 97.322,223.282 99,221.5C 103.636,223.313 107.802,225.813 111.5,229C 114.623,229.206 117.623,229.873 120.5,231C 119.5,232 118.5,233 117.5,234C 120.5,234.667 123.5,234.667 126.5,234C 127.99,231.034 129.99,230.7 132.5,233C 131.221,234.646 129.555,235.813 127.5,236.5C 129.045,237.452 130.712,237.785 132.5,237.5C 132.347,248.521 132.68,259.521 133.5,270.5C 131.5,270.5 129.5,270.5 127.5,270.5C 87.3555,256.352 58.3555,230.018 40.5,191.5C 41.5751,189.144 41.5751,186.811 40.5,184.5C 38.8953,185.587 38.2287,184.921 38.5,182.5C 38.5984,180.063 39.5984,178.063 41.5,176.5C 40.5,175.167 39.5,175.167 38.5,176.5C 37.9017,177.795 37.4017,179.128 37,180.5C 35.9266,176.916 35.2599,173.25 35,169.5C 31.8497,166.623 30.3497,162.956 30.5,158.5C 30.5507,156.9 30.8841,155.4 31.5,154C 30.3939,151.121 29.0606,148.454 27.5,146C 27.9335,144.072 28.6002,142.239 29.5,140.5C 28.1448,136.608 27.3114,136.941 27,141.5C 24.5876,124.581 23.921,107.581 25,90.5C 26.2937,89.1456 26.4604,87.8123 25.5,86.5C 25.5557,72.2582 27.389,58.2582 31,44.5C 32.1827,45.731 33.3493,45.731 34.5,44.5C 32.9951,43.1585 32.3285,41.4918 32.5,39.5C 36.4683,38.5248 40.4683,37.5248 44.5,36.5C 45.1667,36.6667 45.8333,36.8333 46.5,37C 44.448,38.8119 42.1147,40.1452 39.5,41C 41.859,41.2078 44.0257,41.3744 46,41.5C 47.9756,40.4567 48.4756,39.1233 47.5,37.5C 49.1128,36.5726 50.7795,35.7393 52.5,35C 53.2524,34.3292 53.5858,33.4959 53.5,32.5C 79.7879,24.6691 106.788,20.6691 134.5,20.5 Z"/></g>
<g><path style="opacity:1" fill="#306a95" d="M 196.5,27.5 C 210.845,30.2533 224.845,34.2533 238.5,39.5C 239.934,41.2199 240.767,43.2199 241,45.5C 242.162,52.1325 242.996,58.7991 243.5,65.5C 242.883,65.3893 242.383,65.056 242,64.5C 240.934,56.4752 239.768,48.4752 238.5,40.5C 231.801,38.9281 225.135,37.4281 218.5,36C 210.825,33.4426 203.492,30.6092 196.5,27.5 Z"/></g>
<g><path style="opacity:0.999" fill="#d6eaf8" d="M 160.5,6.5 C 193.134,8.77114 224.467,16.1045 254.5,28.5C 256.678,35.5564 258.011,42.8897 258.5,50.5C 259.414,60.1481 260.081,69.8148 260.5,79.5C 258.639,75.0677 257.306,70.2344 256.5,65C 257.523,60.4407 256.856,56.1074 254.5,52C 255.059,51.2753 255.392,50.4419 255.5,49.5C 254.965,45.4816 254.298,41.4816 253.5,37.5C 252.228,34.6181 250.895,31.7848 249.5,29C 244.515,26.1719 239.182,24.5053 233.5,24C 232.833,22.6667 231.833,21.6667 230.5,21C 227.167,20.6667 223.833,20.3333 220.5,20C 202.845,13.6765 184.512,10.0098 165.5,9C 163.685,8.24316 162.019,7.40982 160.5,6.5 Z"/></g>
<g><path style="opacity:1" fill="#fcfefe" d="M 141.5,65.5 C 169.543,69.547 187.21,85.2136 194.5,112.5C 195.645,125.608 194.145,138.275 190,150.5C 186.374,153.654 184.541,157.654 184.5,162.5C 179.806,169.194 174.139,174.861 167.5,179.5C 157.242,185.14 146.242,188.14 134.5,188.5C 134.5,174.833 134.5,161.167 134.5,147.5C 136.099,147.768 137.432,147.434 138.5,146.5C 140.403,146.204 142.07,145.537 143.5,144.5C 153.99,138.228 156.99,129.561 152.5,118.5C 149.766,111.124 144.433,107.124 136.5,106.5C 134.546,93.079 133.879,79.4124 134.5,65.5C 136.833,65.5 139.167,65.5 141.5,65.5 Z"/></g>
<g><path style="opacity:0.141" fill="#f8fefe" d="M 33.5,20.5 C 28.0365,23.0567 22.3698,25.3901 16.5,27.5C 12.9274,40.9317 10.4274,54.5984 9,68.5C 4.46957,107.52 7.63623,145.854 18.5,183.5C 12.1994,166.844 8.36611,149.511 7,131.5C 4.48925,96.8516 6.82258,62.5183 14,28.5C 19.8087,24.3906 26.3087,21.724 33.5,20.5 Z"/></g>
<g><path style="opacity:1" fill="#9ec6e8" d="M 134.5,64.5 C 137.059,64.1984 139.393,64.5318 141.5,65.5C 139.167,65.5 136.833,65.5 134.5,65.5C 133.879,79.4124 134.546,93.079 136.5,106.5C 135.508,106.328 134.842,106.662 134.5,107.5C 134.167,107.5 133.833,107.5 133.5,107.5C 131.735,106.539 129.735,106.205 127.5,106.5C 129.265,105.539 131.265,105.205 133.5,105.5C 133.5,92.1667 133.5,78.8333 133.5,65.5C 133.5,64.8333 133.833,64.5 134.5,64.5 Z"/></g>
<g><path style="opacity:1" fill="#63aee7" d="M 53.5,32.5 C 53.5858,33.4959 53.2524,34.3292 52.5,35C 50.7795,35.7393 49.1128,36.5726 47.5,37.5C 48.4756,39.1233 47.9756,40.4567 46,41.5C 44.0257,41.3744 41.859,41.2078 39.5,41C 42.1147,40.1452 44.448,38.8119 46.5,37C 45.8333,36.8333 45.1667,36.6667 44.5,36.5C 40.4683,37.5248 36.4683,38.5248 32.5,39.5C 32.3285,41.4918 32.9951,43.1585 34.5,44.5C 33.3493,45.731 32.1827,45.731 31,44.5C 27.389,58.2582 25.5557,72.2582 25.5,86.5C 26.4604,87.8123 26.2937,89.1456 25,90.5C 23.921,107.581 24.5876,124.581 27,141.5C 27.3114,136.941 28.1448,136.608 29.5,140.5C 28.6002,142.239 27.9335,144.072 27.5,146C 29.0606,148.454 30.3939,151.121 31.5,154C 30.8841,155.4 30.5507,156.9 30.5,158.5C 30.3497,162.956 31.8497,166.623 35,169.5C 35.2599,173.25 35.9266,176.916 37,180.5C 37.4017,179.128 37.9017,177.795 38.5,176.5C 39.5,175.167 40.5,175.167 41.5,176.5C 39.5984,178.063 38.5984,180.063 38.5,182.5C 38.2287,184.921 38.8953,185.587 40.5,184.5C 41.5751,186.811 41.5751,189.144 40.5,191.5C 32.7251,175.426 27.5584,158.426 25,140.5C 21.8246,106.917 23.3246,73.5838 29.5,40.5C 37.0135,36.4399 45.0135,33.7733 53.5,32.5 Z"/></g>
<g><path style="opacity:1" fill="#62a9de" d="M 133.5,65.5 C 133.5,78.8333 133.5,92.1667 133.5,105.5C 131.265,105.205 129.265,105.539 127.5,106.5C 123.382,106.53 119.382,107.197 115.5,108.5C 117.111,106.905 119.111,105.739 121.5,105C 125.152,104.501 128.818,104.335 132.5,104.5C 132.171,91.3226 132.505,78.3226 133.5,65.5 Z"/></g>
<g><path style="opacity:1" fill="#fcfefe" d="M 127.5,106.5 C 129.735,106.205 131.735,106.539 133.5,107.5C 133.5,120.5 133.5,133.5 133.5,146.5C 131.901,146.232 130.568,146.566 129.5,147.5C 128.833,147.5 128.5,147.833 128.5,148.5C 120.377,150.289 115.71,155.289 114.5,163.5C 112.286,176.382 117.619,184.382 130.5,187.5C 131.568,188.434 132.901,188.768 134.5,188.5C 134.5,202.167 134.5,215.833 134.5,229.5C 115.558,229.025 99.5583,222.025 86.5,208.5C 80.7733,201.047 76.6066,192.713 74,183.5C 68.0828,147.318 81.9161,122.318 115.5,108.5C 119.382,107.197 123.382,106.53 127.5,106.5 Z"/></g>
<g><path style="opacity:1" fill="#2e6590" d="M 136.5,106.5 C 144.433,107.124 149.766,111.124 152.5,118.5C 151.167,118.5 149.833,118.5 148.5,118.5C 148.664,121.187 148.497,123.854 148,126.5C 147.333,127.833 146.667,127.833 146,126.5C 145.352,121.688 145.852,117.022 147.5,112.5C 146.178,112.33 145.011,112.663 144,113.5C 143.23,109.229 140.73,107.563 136.5,108.5C 136.813,120.551 136.479,132.551 135.5,144.5C 138.089,145.205 140.756,145.205 143.5,144.5C 142.07,145.537 140.403,146.204 138.5,146.5C 137.167,146.5 135.833,146.5 134.5,146.5C 134.5,133.5 134.5,120.5 134.5,107.5C 134.842,106.662 135.508,106.328 136.5,106.5 Z"/></g>
<g><path style="opacity:1" fill="#246598" d="M 152.5,118.5 C 156.99,129.561 153.99,138.228 143.5,144.5C 140.756,145.205 138.089,145.205 135.5,144.5C 136.479,132.551 136.813,120.551 136.5,108.5C 140.73,107.563 143.23,109.229 144,113.5C 145.011,112.663 146.178,112.33 147.5,112.5C 145.852,117.022 145.352,121.688 146,126.5C 146.667,127.833 147.333,127.833 148,126.5C 148.497,123.854 148.664,121.187 148.5,118.5C 149.833,118.5 151.167,118.5 152.5,118.5 Z"/></g>
<g><path style="opacity:1" fill="#c8e9fa" d="M 133.5,107.5 C 133.833,107.5 134.167,107.5 134.5,107.5C 134.5,120.5 134.5,133.5 134.5,146.5C 135.833,146.5 137.167,146.5 138.5,146.5C 137.432,147.434 136.099,147.768 134.5,147.5C 132.833,147.5 131.167,147.5 129.5,147.5C 130.568,146.566 131.901,146.232 133.5,146.5C 133.5,133.5 133.5,120.5 133.5,107.5 Z"/></g>
<g><path style="opacity:0.241" fill="#f5fcfe" d="M 258.5,50.5 C 266.802,95.6727 264.302,140.339 251,184.5C 250.102,187.069 248.935,189.402 247.5,191.5C 249.08,184.334 251.247,177.334 254,170.5C 261.225,140.393 263.391,110.06 260.5,79.5C 260.081,69.8148 259.414,60.1481 258.5,50.5 Z"/></g>
<g><path style="opacity:1" fill="#e5f6fc" d="M 194.5,112.5 C 198.672,130.612 195.338,147.278 184.5,162.5C 184.541,157.654 186.374,153.654 190,150.5C 194.145,138.275 195.645,125.608 194.5,112.5 Z"/></g>
<g><path style="opacity:1" fill="#56acee" d="M 128.5,148.5 C 130.099,148.232 131.432,148.566 132.5,149.5C 132.5,161.833 132.5,174.167 132.5,186.5C 131.022,186.762 129.689,186.429 128.5,185.5C 129.706,183.484 129.706,181.484 128.5,179.5C 124.313,184.057 121.646,183.391 120.5,177.5C 122.541,177.146 124.374,177.146 126,177.5C 126.014,175.529 125.681,173.529 125,171.5C 124.077,172.759 123.243,174.092 122.5,175.5C 120.584,174.752 118.584,174.752 116.5,175.5C 115.201,171.63 114.534,167.63 114.5,163.5C 115.71,155.289 120.377,150.289 128.5,148.5 Z"/></g>
<g><path style="opacity:1" fill="#9ac3e5" d="M 128.5,148.5 C 128.5,147.833 128.833,147.5 129.5,147.5C 131.167,147.5 132.833,147.5 134.5,147.5C 134.5,161.167 134.5,174.833 134.5,188.5C 132.901,188.768 131.568,188.434 130.5,187.5C 131.5,187.5 132.5,187.5 133.5,187.5C 133.829,174.656 133.495,161.989 132.5,149.5C 131.432,148.566 130.099,148.232 128.5,148.5 Z"/></g>
<g><path style="opacity:1" fill="#61ace5" d="M 132.5,149.5 C 133.495,161.989 133.829,174.656 133.5,187.5C 132.5,187.5 131.5,187.5 130.5,187.5C 117.619,184.382 112.286,176.382 114.5,163.5C 114.534,167.63 115.201,171.63 116.5,175.5C 118.584,174.752 120.584,174.752 122.5,175.5C 123.243,174.092 124.077,172.759 125,171.5C 125.681,173.529 126.014,175.529 126,177.5C 124.374,177.146 122.541,177.146 120.5,177.5C 121.646,183.391 124.313,184.057 128.5,179.5C 129.706,181.484 129.706,183.484 128.5,185.5C 129.689,186.429 131.022,186.762 132.5,186.5C 132.5,174.167 132.5,161.833 132.5,149.5 Z"/></g>
<g><path style="opacity:1" fill="#2d6791" d="M 167.5,179.5 C 166.826,181.024 165.826,182.358 164.5,183.5C 164.977,184.478 165.643,185.311 166.5,186C 164.717,186.232 163.05,185.732 161.5,184.5C 157.919,186.159 157.919,187.325 161.5,188C 161.167,188.333 160.833,188.667 160.5,189C 154.195,188.811 147.862,188.645 141.5,188.5C 141.5,189.5 141.5,190.5 141.5,191.5C 139.799,191.966 138.299,191.966 137,191.5C 136.179,203.409 136.346,215.243 137.5,227C 136.922,228.417 135.922,229.25 134.5,229.5C 134.5,215.833 134.5,202.167 134.5,188.5C 146.242,188.14 157.242,185.14 167.5,179.5 Z"/></g>
<g><path style="opacity:0.165" fill="#f5fcfe" d="M 18.5,183.5 C 24.2971,196.428 30.6304,209.094 37.5,221.5C 29.0718,209.977 22.7385,197.31 18.5,183.5 Z"/></g>
<g><path style="opacity:1" fill="#5eace8" d="M 86.5,208.5 C 99.5583,222.025 115.558,229.025 134.5,229.5C 134.5,244.167 134.5,258.833 134.5,273.5C 131.904,272.945 129.571,271.945 127.5,270.5C 129.5,270.5 131.5,270.5 133.5,270.5C 132.68,259.521 132.347,248.521 132.5,237.5C 130.712,237.785 129.045,237.452 127.5,236.5C 129.555,235.813 131.221,234.646 132.5,233C 129.99,230.7 127.99,231.034 126.5,234C 123.5,234.667 120.5,234.667 117.5,234C 118.5,233 119.5,232 120.5,231C 117.623,229.873 114.623,229.206 111.5,229C 107.802,225.813 103.636,223.313 99,221.5C 97.322,223.282 95.4886,223.615 93.5,222.5C 94.5,221.833 95.5,221.167 96.5,220.5C 95.2652,217.956 94.0985,217.956 93,220.5C 92.0266,218.608 91.3599,216.608 91,214.5C 88.8733,212.886 87.3733,210.886 86.5,208.5 Z"/></g>
<g><path style="opacity:0.906" fill="#deeffa" d="M 37.5,221.5 C 43.5289,226.92 49.1956,232.753 54.5,239C 57.8765,240.05 59.8765,242.383 60.5,246C 65.3678,249.703 70.3678,253.203 75.5,256.5C 77.4892,260.178 80.4892,262.178 84.5,262.5C 84.33,263.822 84.6634,264.989 85.5,266C 92.8693,270.006 100.203,274.006 107.5,278C 116.34,281.5 125.173,285 134,288.5C 138.386,287.317 142.553,285.651 146.5,283.5C 149.799,282.79 153.133,282.457 156.5,282.5C 144.327,290.305 131.66,291.472 118.5,286C 88.1638,273.595 62.6638,254.762 42,229.5C 40.2226,226.941 38.7226,224.274 37.5,221.5 Z"/></g>
<g><path style="opacity:0.761" fill="#e5f3fb" d="M 247.5,191.5 C 230.192,234.808 199.859,265.141 156.5,282.5C 160.191,280.629 163.525,278.129 166.5,275C 169.309,273.259 172.309,272.092 175.5,271.5C 175.281,270.325 175.614,269.325 176.5,268.5C 180.464,266.851 184.131,264.684 187.5,262C 195.361,258.834 202.195,254.001 208,247.5C 208.333,246.167 208.667,244.833 209,243.5C 217.641,235.435 225.141,226.435 231.5,216.5C 233.193,215.772 234.693,214.772 236,213.5C 240.133,206.231 243.966,198.898 247.5,191.5 Z"/></g>
</svg>
